<svg width="49" height="48" viewBox="0 0 49 48" fill="none" xmlns="http://www.w3.org/2000/svg">
<g id="Icon / envelope">
<path id="email" d="M40.6666 8H8.66663C6.46063 8 4.66663 9.794 4.66663 12V36C4.66663 38.206 6.46063 40 8.66663 40H40.6666C42.8726 40 44.6666 38.206 44.6666 36V12C44.6666 9.794 42.8726 8 40.6666 8ZM40.6666 12V13.022L24.6666 25.468L8.66663 13.024V12H40.6666ZM8.66663 36V18.088L23.4386 29.578C23.7888 29.8531 24.2213 30.0026 24.6666 30.0026C25.112 30.0026 25.5444 29.8531 25.8946 29.578L40.6666 18.088L40.6706 36H8.66663Z" fill="white"/>
</g>
</svg>
