<svg width="38" height="38" viewBox="0 0 38 38" fill="none" xmlns="http://www.w3.org/2000/svg">
<g id="Icon / Instagram">
<path id="Vector" fill-rule="evenodd" clip-rule="evenodd" d="M25.3333 5.13428H12.6667C8.29442 5.13428 4.75 8.6787 4.75 13.0509V25.7176C4.75 30.0898 8.29442 33.6343 12.6667 33.6343H25.3333C29.7056 33.6343 33.25 30.0898 33.25 25.7176V13.0509C33.25 8.6787 29.7056 5.13428 25.3333 5.13428ZM30.4792 25.7176C30.4705 28.5559 28.1716 30.8547 25.3333 30.8634H12.6667C9.8283 30.8547 7.52953 28.5559 7.52083 25.7176V13.0509C7.52953 10.2126 9.8283 7.9138 12.6667 7.90511H25.3333C28.1716 7.9138 30.4705 10.2126 30.4792 13.0509V25.7176ZM26.5208 13.4468C27.3953 13.4468 28.1042 12.7379 28.1042 11.8634C28.1042 10.989 27.3953 10.2801 26.5208 10.2801C25.6464 10.2801 24.9375 10.989 24.9375 11.8634C24.9375 12.7379 25.6464 13.4468 26.5208 13.4468ZM19 12.2593C15.065 12.2593 11.875 15.4493 11.875 19.3843C11.875 23.3193 15.065 26.5093 19 26.5093C22.9351 26.5093 26.125 23.3193 26.125 19.3843C26.1293 17.4933 25.3799 15.6786 24.0428 14.3415C22.7056 13.0044 20.891 12.2551 19 12.2593ZM14.6458 19.3843C14.6458 21.789 16.5952 23.7384 19 23.7384C21.4048 23.7384 23.3542 21.789 23.3542 19.3843C23.3542 16.9795 21.4048 15.0301 19 15.0301C16.5952 15.0301 14.6458 16.9795 14.6458 19.3843Z" fill="white"/>
</g>
</svg>
