<svg width="32" height="32" viewBox="0 0 32 32" fill="none" xmlns="http://www.w3.org/2000/svg">
<path id="Vector" d="M30.7606 10.5061C29.9773 8.66531 28.8416 7.01224 27.395 5.58367C25.9639 4.17067 24.2676 3.04504 22.4004 2.26939C20.4667 1.46203 18.387 1.04829 16.2867 1.05306C14.55 1.05306 12.8506 1.32653 11.234 1.86939C7.45805 0.134694 3.09762 0 1.84586 0C1.75468 0 1.53914 -1.24797e-07 1.45624 0.00816314C0.963001 0.0244897 0.511208 0.27347 0.245935 0.677551C-0.0234835 1.08163 -0.073222 1.59184 0.105008 2.0449L2.77017 8.64082C1.33505 11.0283 0.579092 13.7522 0.581671 16.5265C0.581671 18.6245 0.99616 20.649 1.81685 22.551C2.60023 24.3878 3.73179 26.0449 5.1825 27.4694C6.62078 28.8898 8.30775 30.0041 10.1771 30.7837C12.1128 31.5918 14.1686 32 16.2867 32C18.413 32 20.4689 31.5878 22.4087 30.7837C24.2697 30.0122 25.9526 28.8939 27.3991 27.4694C28.8374 26.049 29.9731 24.3918 30.7648 22.5469C31.5843 20.6412 32.0044 18.592 32 16.5224C31.9917 14.4327 31.5813 12.4082 30.7606 10.5061ZM28.0084 21.3837C27.3693 22.8785 26.4417 24.2369 25.2769 25.3837C24.0998 26.5469 22.7361 27.4531 21.2274 28.0735H21.2232C19.6482 28.7265 17.9778 29.0612 16.2535 29.0612C14.5786 29.0631 12.9198 28.7388 11.3726 28.1069C9.82542 27.4751 8.4204 26.5482 7.23837 25.3796C6.06122 24.2163 5.14105 22.8735 4.51103 21.3878V21.3837C3.84785 19.8408 3.51211 18.1918 3.51211 16.4898C3.51211 14.2286 4.12556 12.0122 5.28613 10.0816L5.83325 9.17959L5.43949 8.20408L3.31316 2.93878C3.93075 2.96327 4.80117 3.02449 5.78766 3.16735C7.60312 3.43265 9.2072 3.88163 10.5501 4.49796L11.3377 4.86123L12.1625 4.58367C13.4681 4.14286 14.8484 3.92245 16.2618 3.92245C17.9368 3.9206 19.5955 4.24492 21.1427 4.87676C22.6899 5.50861 24.0949 6.43549 25.2769 7.60408C26.4541 8.76735 27.3743 10.1102 28.0043 11.5959L28.0084 11.6L28.0126 11.6041C28.6758 13.1388 29.0115 14.7878 29.0156 16.4939C29.0115 18.1959 28.6716 19.8408 28.0084 21.3837ZM23.0055 9.96735C22.16 9.96735 21.4678 10.649 21.4678 11.4816V13.7306C21.4678 14.5633 22.1558 15.2449 23.0055 15.2449C23.8552 15.2449 24.5433 14.5633 24.5433 13.7306V11.4816C24.5433 10.6449 23.8511 9.96735 23.0055 9.96735ZM15.7437 9.96735C14.894 9.96735 14.2059 10.649 14.2059 11.4816V13.7306C14.2059 14.5633 14.8981 15.2449 15.7437 15.2449C16.5934 15.2449 17.2814 14.5633 17.2814 13.7306V11.4816C17.2814 10.6449 16.5893 9.96735 15.7437 9.96735Z" fill="white"/>
</svg>
