<svg width="23" height="22" viewBox="0 0 23 22" fill="none" xmlns="http://www.w3.org/2000/svg">
<path id="Vector" d="M21.1533 21.9688H22.9001L18.0251 9.78125H16.1158L11.2408 21.9688H12.9876L14.2876 18.7188H19.8533L21.1533 21.9688ZM14.9376 17.0938L17.0664 11.7638L19.2033 17.0938H14.9376ZM13.1501 4.09375V2.46875H7.46265V0.03125H5.83765V2.46875H0.150146V4.09375H8.8764C8.42651 5.95072 7.53768 7.67266 6.28452 9.115C5.4678 8.10223 4.83777 6.95222 4.4239 5.71875H2.71765C3.22967 7.37326 4.05742 8.91288 5.15515 10.2525C3.94184 11.4305 2.52021 12.3727 0.962646 13.0312L1.57202 14.5425C3.32152 13.8032 4.91506 12.739 6.26827 11.4062C7.59627 12.758 9.1897 13.8203 10.9483 14.5262L11.5251 13.0312C9.95921 12.4254 8.54085 11.4918 7.36515 10.2931C8.92074 8.52021 10.0148 6.3908 10.5501 4.09375H13.1501Z" fill="black"/>
</svg>
