<svg width="38" height="38" viewBox="0 0 38 38" fill="none" xmlns="http://www.w3.org/2000/svg">
<g id="Icon / Youtube">
<path id="Vector" d="M34.1889 11.4048C34.0086 10.7357 33.6562 10.1255 33.1667 9.63494C32.6772 9.14437 32.0678 8.79054 31.3991 8.60868C28.9196 7.92784 19 7.91676 19 7.91676C19 7.91676 9.08203 7.90568 6.60095 8.55643C5.93266 8.74666 5.3245 9.10549 4.83485 9.59847C4.34519 10.0915 3.99049 10.702 3.80478 11.3716C3.15087 13.8511 3.14453 18.9938 3.14453 18.9938C3.14453 18.9938 3.1382 24.1618 3.78737 26.6159C4.15153 27.9728 5.22028 29.0448 6.57878 29.4105C9.08362 30.0913 18.9763 30.1024 18.9763 30.1024C18.9763 30.1024 28.8959 30.1135 31.3754 29.4643C32.0443 29.2828 32.6543 28.9298 33.145 28.4402C33.6357 27.9506 33.9901 27.3415 34.1731 26.6729C34.8286 24.195 34.8334 19.0539 34.8334 19.0539C34.8334 19.0539 34.865 13.8843 34.1889 11.4048ZM15.827 23.758L15.835 14.258L24.0794 19.0159L15.827 23.758Z" fill="white"/>
</g>
</svg>
